<?xml version="1.0" encoding="UTF-8"?>
<svg width="32px" height="32px" viewBox="0 0 32 32" version="1.1" xmlns="http://www.w3.org/2000/svg" xmlns:xlink="http://www.w3.org/1999/xlink">
    <!-- Generator: Sketch 54.1 (76490) - https://sketchapp.com -->
    <title>Icn-w3w/Sea</title>
    <desc>Created with Sketch.</desc>
    <g id="Icn-w3w/Sea" stroke="none" stroke-width="1" fill="none" fill-rule="evenodd" stroke-linecap="round">
        <path d="M9,12.0292793 C10.0017938,11.3430931 11.1852113,11 12.5502525,11 C13.9152938,11 15.2318763,11.3430931 16.5,12.0292793 C17.8346759,12.7195579 19.1680092,13.0646973 20.5,13.0646973 C21.8319908,13.0646973 22.9986574,12.7195579 24,12.0292793 M9,16.0292793 C10.0017938,15.3430931 11.1852113,15 12.5502525,15 C13.9152938,15 15.2318763,15.3430931 16.5,16.0292793 C17.8346759,16.7195579 19.1680092,17.0646973 20.5,17.0646973 C21.8319908,17.0646973 22.9986574,16.7195579 24,16.0292793 M9,20.0292793 C10.0017938,19.3430931 11.1852113,19 12.5502525,19 C13.9152938,19 15.2318763,19.3430931 16.5,20.0292793 C17.8346759,20.7195579 19.1680092,21.0646973 20.5,21.0646973 C21.8319908,21.0646973 22.9986574,20.7195579 24,20.0292793" id="Combined-Shape" stroke="#000000"></path>
    </g>
</svg>