<svg width="60" height="10" viewBox="0 0 60 10" fill="none" xmlns="http://www.w3.org/2000/svg">
<path d="M50.797 2.81812C50.2817 2.81861 49.8337 2.9434 49.5426 3.21582V3.13108C49.5421 3.04832 49.5086 2.96912 49.4495 2.91078C49.3904 2.85243 49.3104 2.81969 49.2271 2.81969C49.1438 2.81969 49.0638 2.85243 49.0047 2.91078C48.9456 2.96912 48.9121 3.04832 48.9116 3.13108V6.89186C48.9121 6.97462 48.9456 7.05382 49.0047 7.11216C49.0638 7.17051 49.1438 7.20326 49.2271 7.20326C49.3104 7.20326 49.3904 7.17051 49.4495 7.11216C49.5086 7.05382 49.5421 6.97462 49.5426 6.89186V4.81779C49.5426 3.88767 49.8532 3.44588 50.7887 3.44465C50.871 3.44124 50.9491 3.40779 51.0081 3.35072C51.0671 3.29365 51.1028 3.21696 51.1083 3.13537C51.1091 3.09418 51.1016 3.05326 51.0863 3.01497C51.071 2.97668 51.0482 2.94178 51.0193 2.91228C50.9903 2.88278 50.9558 2.85927 50.9176 2.8431C50.8795 2.82694 50.8385 2.81845 50.797 2.81812Z" fill="#0A3049"/>
<path d="M16.1749 7.20494C16.1102 7.20491 16.0471 7.18515 15.9941 7.14832C15.9411 7.1115 15.9008 7.05939 15.8786 6.99905L14.7981 4.05908L13.7433 6.9969C13.7274 7.06136 13.6886 7.11794 13.634 7.15618C13.5794 7.19442 13.5127 7.21173 13.4462 7.20494C13.3815 7.20491 13.3184 7.18515 13.2654 7.14832C13.2124 7.1115 13.1721 7.05939 13.1499 6.99905L11.7683 3.23979C11.754 3.20112 11.7476 3.16004 11.7493 3.11888C11.751 3.07773 11.7609 3.03732 11.7784 2.99996C11.7958 2.9626 11.8205 2.92903 11.8511 2.90117C11.8816 2.87331 11.9174 2.8517 11.9564 2.83758C11.9953 2.82346 12.0367 2.81711 12.0781 2.8189C12.1196 2.82068 12.1603 2.83056 12.1978 2.84797C12.2354 2.86538 12.2692 2.88998 12.2972 2.92036C12.3252 2.95074 12.3469 2.98631 12.361 3.02503L13.4428 5.96837L14.4854 3.06453C14.4969 3.01308 14.5213 2.96533 14.5563 2.92572C14.5913 2.8861 14.6358 2.8559 14.6857 2.8379C14.7356 2.81991 14.7892 2.8147 14.8417 2.82277C14.8941 2.83083 14.9437 2.85191 14.9857 2.88405C15.039 2.92482 15.078 2.98123 15.0972 3.04526L16.1715 5.96844L17.227 3.02877C17.2409 2.99002 17.2624 2.95437 17.2902 2.92386C17.318 2.89335 17.3516 2.86857 17.389 2.85095C17.4264 2.83332 17.467 2.82319 17.5084 2.82113C17.5497 2.81906 17.5911 2.82512 17.6301 2.83894C17.6691 2.85276 17.705 2.87407 17.7358 2.90167C17.7665 2.92927 17.7914 2.9626 17.8092 2.99977C17.8269 3.03695 17.8371 3.07723 17.8392 3.11831C17.8413 3.1594 17.8352 3.20049 17.8213 3.23924L16.4721 6.99697C16.4542 7.06029 16.4149 7.11554 16.3607 7.15342C16.3066 7.1913 16.241 7.20949 16.1749 7.20494Z" fill="#0A3049"/>
<path d="M20.7643 2.81769C20.3235 2.80185 19.8916 2.94303 19.5465 3.21574V1.25133C19.546 1.16857 19.5125 1.08938 19.4534 1.03103C19.3943 0.972689 19.3143 0.939941 19.231 0.939941C19.1477 0.939941 19.0677 0.972689 19.0086 1.03103C18.9495 1.08938 18.916 1.16857 18.9155 1.25133V6.89175C18.916 6.97451 18.9495 7.05371 19.0086 7.11205C19.0677 7.17039 19.1477 7.20314 19.231 7.20314C19.3143 7.20314 19.3943 7.17039 19.4534 7.11205C19.5125 7.05371 19.546 6.97451 19.5465 6.89175V4.55965C19.5474 4.44554 19.5901 3.44421 20.7643 3.44421C21.8081 3.44421 21.8482 4.41982 21.8493 4.52965V6.89169C21.8493 6.97478 21.8825 7.05446 21.9417 7.11321C22.0008 7.17196 22.0811 7.20496 22.1647 7.20496C22.2484 7.20496 22.3286 7.17196 22.3878 7.11321C22.447 7.05446 22.4802 6.97478 22.4802 6.89169V4.52965C22.4802 3.9374 22.1216 2.81769 20.7643 2.81769Z" fill="#0A3049"/>
<path d="M30.9478 6.57861C30.415 6.57861 30.2073 6.34641 30.2073 5.75015V3.44436H30.9478C31.0314 3.44436 31.1117 3.41135 31.1708 3.3526C31.23 3.29385 31.2632 3.21417 31.2632 3.13109C31.2632 3.04801 31.23 2.96832 31.1708 2.90957C31.1117 2.85082 31.0314 2.81782 30.9478 2.81782H30.2073V2.13529C30.2073 2.05221 30.1741 1.97253 30.1149 1.91378C30.0558 1.85503 29.9755 1.82202 29.8919 1.82202C29.8082 1.82202 29.728 1.85503 29.6688 1.91378C29.6096 1.97253 29.5764 2.05221 29.5764 2.13529V2.81782H29.083C28.9994 2.81782 28.9191 2.85082 28.86 2.90957C28.8008 2.96832 28.7676 3.04801 28.7676 3.13109C28.7676 3.21417 28.8008 3.29385 28.86 3.3526C28.9191 3.41135 28.9994 3.44436 29.083 3.44436H29.5764V5.75015C29.5764 7.01614 30.4356 7.20515 30.9477 7.20515C31.0314 7.20515 31.1116 7.17214 31.1708 7.11339C31.23 7.05464 31.2632 6.97496 31.2632 6.89188C31.2632 6.80879 31.23 6.72911 31.1708 6.67036C31.1116 6.61161 31.0314 6.57861 30.9477 6.57861H30.9478Z" fill="#0A3049"/>
<path d="M33.9905 7.35264C33.5718 7.3514 33.1691 7.19355 32.8624 6.91056C32.5557 6.62757 32.3676 6.24022 32.3357 5.8257C32.33 5.74301 32.3575 5.66146 32.4123 5.59889C32.467 5.53631 32.5444 5.49782 32.6277 5.49183C32.7109 5.48585 32.7932 5.51285 32.8564 5.56694C32.9196 5.62103 32.9587 5.6978 32.9651 5.78043C32.9798 5.97863 33.0525 6.16823 33.1742 6.326C33.2959 6.48377 33.4613 6.60284 33.6502 6.66861C33.839 6.73438 34.0431 6.744 34.2374 6.69627C34.4317 6.64855 34.6077 6.54556 34.7439 6.39994C34.8801 6.25432 34.9705 6.0724 35.0041 5.87649C35.0377 5.68057 35.013 5.47918 34.933 5.297C34.853 5.11483 34.7212 4.9598 34.5538 4.85091C34.3864 4.74203 34.1906 4.68403 33.9905 4.68403C33.9491 4.68403 33.908 4.67593 33.8698 4.66018C33.8315 4.64444 33.7967 4.62136 33.7674 4.59227C33.7381 4.56318 33.7149 4.52865 33.699 4.49064C33.6832 4.45263 33.675 4.4119 33.675 4.37076C33.675 4.32962 33.6832 4.28888 33.699 4.25087C33.7149 4.21287 33.7381 4.17833 33.7674 4.14924C33.7967 4.12015 33.8315 4.09708 33.8698 4.08133C33.908 4.06559 33.9491 4.05749 33.9905 4.05749C34.1553 4.05751 34.3165 4.00978 34.4543 3.92015C34.5922 3.83051 34.7007 3.70288 34.7666 3.55289C34.8325 3.4029 34.8528 3.23708 34.8252 3.07577C34.7975 2.91445 34.7231 2.76466 34.611 2.64475C34.4988 2.52484 34.3539 2.44002 34.194 2.40071C34.034 2.3614 33.866 2.3693 33.7105 2.42344C33.555 2.47758 33.4188 2.57561 33.3186 2.7055C33.2184 2.83539 33.1585 2.9915 33.1463 3.15469C33.14 3.23735 33.1009 3.31414 33.0377 3.36825C32.9744 3.42236 32.8922 3.44938 32.8089 3.44339C32.7257 3.4374 32.6482 3.39889 32.5935 3.33629C32.5387 3.27369 32.5112 3.19211 32.517 3.10941C32.5347 2.86729 32.6126 2.63333 32.7438 2.42848C32.875 2.22364 33.0553 2.05431 33.2686 1.93568C33.4819 1.81705 33.7214 1.75282 33.9659 1.74874C34.2103 1.74467 34.4519 1.80088 34.6691 1.91233C34.8862 2.02379 35.0722 2.18701 35.2102 2.38737C35.3482 2.58772 35.434 2.81896 35.4599 3.06035C35.4858 3.30174 35.451 3.54574 35.3586 3.77049C35.2662 3.99524 35.1191 4.19371 34.9305 4.34812C35.2222 4.54727 35.4422 4.83389 35.5581 5.16606C35.674 5.49822 35.6799 5.85851 35.5749 6.19423C35.4698 6.52995 35.2594 6.82349 34.9743 7.03192C34.6892 7.24036 34.3445 7.35274 33.9905 7.35265L33.9905 7.35264Z" fill="#0A3049"/>
<path d="M41.0228 7.20519C40.9581 7.20516 40.895 7.1854 40.842 7.14857C40.789 7.11175 40.7487 7.05964 40.7265 6.9993L39.6459 4.05933L38.5912 6.99717C38.5694 7.05783 38.5292 7.11034 38.4763 7.14756C38.4234 7.18478 38.3602 7.20491 38.2953 7.2052H38.2941C38.2294 7.20517 38.1663 7.18541 38.1133 7.14859C38.0603 7.11176 38.0199 7.05965 37.9977 6.99931L36.6161 3.24005C36.5876 3.16204 36.5914 3.07598 36.6267 3.00077C36.6621 2.92556 36.726 2.86734 36.8045 2.83889C36.883 2.81044 36.9697 2.8141 37.0455 2.84904C37.1213 2.88399 37.18 2.94738 37.2088 3.02529L38.2906 5.96864L39.3332 3.06479C39.3447 3.01333 39.369 2.96559 39.404 2.92597C39.439 2.88636 39.4835 2.85616 39.5334 2.83816C39.5833 2.82017 39.637 2.81496 39.6894 2.82302C39.7419 2.83109 39.7914 2.85216 39.8335 2.8843C39.8867 2.92507 39.9257 2.98148 39.9449 3.04551L41.0193 5.96869L42.0748 3.02902C42.0887 2.99027 42.1101 2.95462 42.1379 2.92411C42.1657 2.8936 42.1993 2.86883 42.2367 2.8512C42.2741 2.83357 42.3147 2.82344 42.3561 2.82138C42.3975 2.81932 42.4388 2.82537 42.4779 2.83919C42.5169 2.85301 42.5528 2.87433 42.5835 2.90192C42.6142 2.92952 42.6392 2.96285 42.6569 3.00003C42.6747 3.0372 42.6849 3.07748 42.687 3.11857C42.689 3.15965 42.6829 3.20074 42.669 3.23949L41.32 6.99722C41.2982 7.05788 41.258 7.1104 41.2051 7.14762C41.1522 7.18484 41.089 7.20497 41.0241 7.20526L41.0228 7.20519Z" fill="#0A3049"/>
<path d="M45.6101 7.20514C45.1733 7.20513 44.7464 7.07652 44.3833 6.83556C44.0201 6.5946 43.7371 6.25211 43.5699 5.85141C43.4028 5.45071 43.3591 5.0098 43.4443 4.58442C43.5295 4.15904 43.7398 3.7683 44.0486 3.46162C44.3575 3.15494 44.7509 2.94608 45.1793 2.86147C45.6076 2.77686 46.0516 2.82029 46.4551 2.98626C46.8586 3.15224 47.2035 3.43331 47.4462 3.79393C47.6888 4.15455 47.8183 4.57852 47.8183 5.01224C47.8176 5.59362 47.5848 6.151 47.1708 6.5621C46.7568 6.97321 46.1955 7.20446 45.6101 7.20514ZM45.6101 3.44588C45.2981 3.44588 44.9932 3.53774 44.7338 3.70986C44.4744 3.88197 44.2722 4.1266 44.1528 4.41282C44.0334 4.69903 44.0022 5.01397 44.0631 5.31782C44.1239 5.62166 44.2742 5.90076 44.4947 6.11982C44.7153 6.33888 44.9964 6.48806 45.3024 6.5485C45.6083 6.60894 45.9255 6.57792 46.2137 6.45936C46.5019 6.34081 46.7482 6.14005 46.9216 5.88246C47.0949 5.62487 47.1874 5.32203 47.1874 5.01224C47.1869 4.59696 47.0206 4.19884 46.7249 3.9052C46.4292 3.61156 46.0283 3.44637 45.6101 3.44588Z" fill="#0A3049"/>
<path d="M55.6098 0.938232C55.5684 0.93822 55.5274 0.946315 55.4891 0.962054C55.4508 0.977793 55.416 1.00087 55.3867 1.02996C55.3574 1.05905 55.3342 1.09359 55.3183 1.1316C55.3025 1.16962 55.2943 1.21036 55.2943 1.2515V3.45064C55.1042 3.25227 54.8756 3.0941 54.6223 2.98563C54.3691 2.87715 54.0963 2.82061 53.8205 2.81939C52.66 2.81939 51.7158 3.80326 51.7158 5.01229C51.7158 6.22132 52.66 7.20519 53.8205 7.20519C54.0963 7.20397 54.3691 7.14743 54.6223 7.03896C54.8756 6.93048 55.1042 6.77232 55.2943 6.57395V6.89192C55.2948 6.97468 55.3283 7.05388 55.3874 7.11222C55.4465 7.17056 55.5265 7.20331 55.6098 7.20331C55.6931 7.20331 55.7731 7.17056 55.8322 7.11222C55.8913 7.05388 55.9248 6.97468 55.9253 6.89192V1.2515C55.9253 1.21036 55.9171 1.16962 55.9013 1.13161C55.8854 1.09359 55.8622 1.05906 55.8329 1.02996C55.8036 1.00087 55.7688 0.977797 55.7305 0.962057C55.6923 0.946318 55.6512 0.938222 55.6098 0.938232ZM53.8205 6.57865C53.0079 6.57865 52.3467 5.87593 52.3467 5.01229C52.3467 4.14865 53.0079 3.44593 53.8205 3.44593C54.6332 3.44593 55.2943 4.14866 55.2943 5.01229C55.2943 5.87592 54.6332 6.57865 53.8205 6.57865Z" fill="#0A3049"/>
<path d="M27.3631 2.81934C27.3217 2.81932 27.2807 2.82742 27.2424 2.84316C27.2041 2.8589 27.1693 2.88197 27.14 2.91106C27.1107 2.94016 27.0875 2.9747 27.0716 3.01271C27.0558 3.05072 27.0476 3.09146 27.0476 3.13261V3.45479C26.8572 3.25512 26.6281 3.09587 26.3739 2.98666C26.1198 2.87744 25.846 2.82054 25.5691 2.81938C24.4086 2.81938 23.4644 3.80325 23.4644 5.01228C23.4644 6.22131 24.4086 7.20518 25.5691 7.20518C25.846 7.20403 26.1198 7.14712 26.3739 7.03791C26.6281 6.92869 26.8572 6.76944 27.0476 6.56977C27.0476 6.56977 27.0711 6.51174 27.0476 6.89191C27.0482 6.97467 27.0816 7.05387 27.1407 7.11221C27.1998 7.17055 27.2798 7.2033 27.3631 7.2033C27.4465 7.2033 27.5264 7.17055 27.5855 7.11221C27.6446 7.05387 27.6781 6.97467 27.6786 6.89191V3.13261C27.6786 3.09146 27.6704 3.05072 27.6546 3.01271C27.6387 2.9747 27.6155 2.94016 27.5862 2.91107C27.5569 2.88198 27.5221 2.8589 27.4839 2.84316C27.4456 2.82742 27.4045 2.81933 27.3631 2.81934ZM25.5691 6.5786C24.7564 6.5786 24.0953 5.87588 24.0953 5.01224C24.0953 4.14859 24.7564 3.44588 25.5691 3.44588C26.3818 3.44588 27.0427 4.1486 27.0427 5.01224C27.0427 5.87587 26.3816 6.5786 25.5691 6.5786Z" fill="#0A3049"/>
<path d="M58.5471 7.2022C57.8901 7.2022 57.3481 6.92136 57.0603 6.43157C57.019 6.36152 57.0048 6.27893 57.0203 6.19923C57.0358 6.11952 57.0799 6.04813 57.1445 5.99837C57.1757 5.97626 57.2113 5.96104 57.2489 5.95374C57.2865 5.94643 57.3253 5.94721 57.3625 5.95602C57.3998 5.96484 57.4348 5.98147 57.465 6.00482C57.4953 6.02817 57.5202 6.05768 57.538 6.09137C57.6497 6.25645 57.8005 6.39179 57.9772 6.48553C58.1538 6.57926 58.3509 6.62852 58.5512 6.62898C59.0781 6.62898 59.414 6.40819 59.414 6.05573C59.414 5.70217 59.0264 5.55424 58.4387 5.28587C57.777 4.98363 57.1342 4.77081 57.1221 3.97521C57.1141 3.44381 57.6628 2.87026 58.4994 2.8204C59.0131 2.78888 59.5178 2.9894 59.7859 3.27409C59.8414 3.33365 59.8738 3.41092 59.8772 3.49205C59.8806 3.57318 59.8548 3.65285 59.8044 3.71677C59.7809 3.7467 59.7512 3.77125 59.7174 3.78877C59.6835 3.80629 59.6462 3.81637 59.6081 3.81832C59.57 3.82027 59.5319 3.81404 59.4964 3.80006C59.4609 3.78608 59.4288 3.76468 59.4024 3.7373C58.7505 3.13112 57.6979 3.4173 57.6978 3.97524C57.6978 4.31428 58.1788 4.50217 58.6557 4.71475C59.1209 4.9222 59.9984 5.24893 59.9984 6.05579C59.9984 6.57658 59.5409 7.2022 58.5471 7.2022Z" fill="#0A3049"/>
<path d="M10.0685 0H-0.00146484V10H10.0685V0Z" fill="#E11F26"/>
<path d="M4.40668 7.19047C4.35671 7.1904 4.30747 7.17855 4.26301 7.15591C4.21855 7.13326 4.18013 7.10046 4.15092 7.06021C4.1217 7.01995 4.10252 6.97339 4.09495 6.92434C4.08738 6.87529 4.09164 6.82516 4.10737 6.77807L5.36927 3.01864C5.38238 2.9796 5.4031 2.94352 5.43025 2.91244C5.45741 2.88136 5.49046 2.85589 5.52752 2.8375C5.56458 2.8191 5.60493 2.80814 5.64626 2.80523C5.68758 2.80232 5.72909 2.80752 5.76839 2.82054C5.8077 2.83355 5.84403 2.85413 5.87533 2.88109C5.90663 2.90806 5.93227 2.94088 5.95079 2.97768C5.96932 3.01449 5.98036 3.05455 5.98329 3.0956C5.98622 3.13664 5.98098 3.17785 5.96788 3.21688L4.70598 6.97631C4.68502 7.03868 4.64485 7.09293 4.59113 7.13136C4.53741 7.1698 4.47288 7.19047 4.40668 7.19047Z" fill="white"/>
<path d="M2.51361 7.19047C2.46364 7.1904 2.41441 7.17855 2.36994 7.15591C2.32548 7.13326 2.28707 7.10046 2.25785 7.06021C2.22864 7.01995 2.20946 6.97339 2.20189 6.92434C2.19432 6.87529 2.19857 6.82516 2.21431 6.77807L3.47622 3.01864C3.48933 2.9796 3.51005 2.94352 3.5372 2.91244C3.56435 2.88136 3.5974 2.85589 3.63446 2.8375C3.67152 2.8191 3.71187 2.80814 3.7532 2.80523C3.79453 2.80232 3.83603 2.80752 3.87533 2.82054C3.91464 2.83355 3.95098 2.85413 3.98227 2.88109C4.01357 2.90806 4.03921 2.94088 4.05774 2.97768C4.07626 3.01449 4.0873 3.05455 4.09023 3.0956C4.09317 3.13664 4.08793 3.17785 4.07482 3.21688L2.81292 6.97631C2.79197 7.03868 2.75179 7.09293 2.69807 7.13136C2.64435 7.1698 2.57982 7.19048 2.51361 7.19047Z" fill="white"/>
<path d="M6.29925 7.19039C6.24929 7.19032 6.20005 7.17847 6.15559 7.15583C6.11113 7.13318 6.07271 7.10039 6.0435 7.06013C6.01428 7.01988 5.9951 6.97331 5.98753 6.92426C5.97996 6.87522 5.98422 6.82508 5.99995 6.77799L7.26185 3.01856C7.2887 2.9402 7.34568 2.87557 7.42034 2.83879C7.49501 2.80201 7.5813 2.79606 7.66037 2.82225C7.73944 2.84843 7.80486 2.90462 7.84235 2.97855C7.87984 3.05247 7.88635 3.13813 7.86046 3.2168L6.59855 6.97623C6.5776 7.0386 6.53742 7.09285 6.48371 7.13128C6.42999 7.16972 6.36546 7.1904 6.29925 7.19039Z" fill="white"/>
</svg>
